<?xml version="1.0" encoding="UTF-8"?><svg id="Layer_1" xmlns="http://www.w3.org/2000/svg" viewBox="0 0 16 16"><defs><style>.cls-1{opacity:.5;}.cls-2{fill:#4caf50;}.cls-2,.cls-3,.cls-4,.cls-5,.cls-6,.cls-7,.cls-8,.cls-9{stroke-width:0px;}.cls-3{fill:#3083fc;}.cls-4{fill:#2e3192;}.cls-5{fill:#1b1464;}.cls-6{fill:#ffb400;}.cls-7{fill:#f15a24;}.cls-8{fill:#f7931e;}.cls-9{fill:#00a99d;}</style></defs><rect class="cls-4" width="16" height="16"/><g class="cls-1"><path class="cls-5" d="m8.3,7.12l-1.44-2.41c-.37-.62-.27-1.41.24-1.92l.09-.09c.62-.62,1.61-.62,2.23,0l.09.09c.51.51.61,1.3.24,1.92l-1.44,2.41Z"/><path class="cls-5" d="m7.44,7.62l-2.8.04c-.72.01-1.36-.47-1.55-1.17l-.03-.12c-.23-.84.27-1.7,1.11-1.93l.12-.03c.7-.19,1.43.12,1.78.75l1.37,2.45Z"/><path class="cls-5" d="m7.44,8.61l-1.37,2.45c-.35.63-1.09.94-1.78.75l-.12-.03c-.84-.23-1.34-1.09-1.11-1.93l.03-.12c.19-.7.82-1.18,1.55-1.17l2.8.04Z"/><path class="cls-5" d="m8.3,9.11l1.44,2.41c.37.62.27,1.41-.24,1.92l-.09.09c-.62.62-1.61.62-2.23,0l-.09-.09c-.51-.51-.61-1.3-.24-1.92l1.44-2.41Z"/><path class="cls-5" d="m9.16,8.61l2.8-.04c.72-.01,1.36.47,1.55,1.17l.03.12c.23.84-.27,1.7-1.11,1.93l-.12.03c-.7.19-1.43-.12-1.78-.75l-1.37-2.45Z"/><path class="cls-5" d="m9.16,7.62l1.37-2.45c.35-.63,1.09-.94,1.78-.75l.12.03c.84.23,1.34,1.09,1.11,1.93l-.03.12c-.19.7-.82,1.18-1.55,1.17l-2.8-.04Z"/></g><path class="cls-7" d="m7.95,6.77l-1.44-2.41c-.37-.62-.27-1.41.24-1.92l.09-.09c.62-.62,1.61-.62,2.23,0l.09.09c.51.51.61,1.3.24,1.92l-1.44,2.41Z"/><path class="cls-9" d="m7.09,7.27l-2.8.04c-.72.01-1.36-.47-1.55-1.17l-.03-.12c-.23-.84.27-1.7,1.11-1.93l.12-.03c.7-.19,1.43.12,1.78.75l1.37,2.45Z"/><path class="cls-8" d="m7.09,8.26l-1.37,2.45c-.35.63-1.09.94-1.78.75l-.12-.03c-.84-.23-1.34-1.09-1.11-1.93l.03-.12c.19-.7.82-1.18,1.55-1.17l2.8.04Z"/><path class="cls-2" d="m7.95,8.76l1.44,2.41c.37.62.27,1.41-.24,1.92l-.09.09c-.62.62-1.61.62-2.23,0l-.09-.09c-.51-.51-.61-1.3-.24-1.92l1.44-2.41Z"/><path class="cls-6" d="m8.81,8.26l2.8-.04c.72-.01,1.36.47,1.55,1.17l.03.12c.23.84-.27,1.7-1.11,1.93l-.12.03c-.7.19-1.43-.12-1.78-.75l-1.37-2.45Z"/><path class="cls-3" d="m8.81,7.27l1.37-2.45c.35-.63,1.09-.94,1.78-.75l.12.03c.84.23,1.34,1.09,1.11,1.93l-.03.12c-.19.7-.82,1.18-1.55,1.17l-2.8-.04Z"/></svg>