<?xml version="1.0" encoding="UTF-8"?><svg id="Layer_1" xmlns="http://www.w3.org/2000/svg" viewBox="0 0 16 16"><defs><style>.cls-1{fill:none;stroke:#fff;stroke-linecap:round;stroke-miterlimit:10;stroke-width:.25px;}.cls-2{opacity:.1;}.cls-2,.cls-3,.cls-4,.cls-5,.cls-6,.cls-7,.cls-8{stroke-width:0px;}.cls-2,.cls-5{fill:#1b1464;}.cls-3{fill:#4557d8;}.cls-4{fill:#3083fc;}.cls-6{fill:#23a8fe;}.cls-7{fill:#fff;}.cls-8{fill:#e9f3ff;}</style></defs><rect class="cls-8" width="16" height="16"/><rect class="cls-3" x=".5" y=".93" width="12" height="10.64" rx=".59" ry=".59"/><path class="cls-7" d="m8.81,2.73h-4.73c-.36,0-.64.29-.64.64v3c0,.36.29.64.64.64h4.73c.36,0,.64-.29.64-.64v-3c0-.36-.29-.64-.64-.64Zm.22,2.49l-1.35-1.35c-.08-.08-.22-.08-.3,0l-1.78,1.78-.71-.71c-.08-.08-.22-.08-.3,0l-.71.71v-2.27c0-.12.1-.21.21-.21h4.73c.12,0,.21.1.21.21v1.84h0Z"/><circle class="cls-7" cx="5.37" cy="4.23" r=".64"/><line class="cls-1" x1="3.51" y1="8.33" x2="7.65" y2="8.33"/><line class="cls-1" x1="3.57" y1="9.3" x2="10.05" y2="9.3"/><path class="cls-4" d="m14.47,7.03h-4.36c-.57,0-1.03.47-1.03,1.03v4.14c0,.57.47,1.03,1.03,1.03h2.62c.11,0,.2.1.17.21-.07.3-.18.61-.33.93-.07.14.09.29.23.21.39-.24.95-.65,1.43-1.23.06-.08.15-.12.25-.12.57,0,1.04-.47,1.04-1.04v-4.14c0-.57-.47-1.04-1.03-1.04h0Z"/><path class="cls-6" d="m12.2,15.07s.02,0,.03,0c-.05,0-.07,0-.03,0Z"/><path class="cls-2" d="m14.83,8.07v4.14c0,.54-.41.98-.94,1.03,0,0,0,0,0,0,0,0-.62.82-1.12,1.36,0,0,.01,0,.02,0,.39-.24.95-.65,1.43-1.23.06-.08.15-.12.25-.12.24,0,.46-.08.63-.22h0c.09-.07.17-.16.23-.25,0,0,0,0,0,0,.02-.03.04-.06.05-.09,0,0,0-.02.01-.03.01-.02.02-.05.03-.07,0-.01,0-.02.01-.04,0-.02.01-.05.02-.07,0-.01,0-.03.01-.04,0-.02,0-.05.01-.07,0-.01,0-.03,0-.04,0-.04,0-.07,0-.11,0,0,0,0,0,0v-4.14c0-.28-.12-.54-.3-.73,0,0,0,0,0,0,0,0-.02-.02-.03-.03-.18-.17-.43-.28-.7-.28h-.68c.57,0,1.04.47,1.04,1.04Z"/><circle class="cls-5" cx="10.65" cy="10.26" r=".34"/><circle class="cls-5" cx="11.76" cy="10.26" r=".34"/><circle class="cls-5" cx="12.87" cy="10.26" r=".34"/><circle class="cls-5" cx="13.98" cy="10.26" r=".34"/><circle class="cls-7" cx="10.5" cy="10.11" r=".34"/><circle class="cls-7" cx="11.61" cy="10.11" r=".34"/><circle class="cls-7" cx="12.72" cy="10.11" r=".34"/><circle class="cls-7" cx="13.83" cy="10.11" r=".34"/></svg>
